<?xml version="1.0" standalone="no"?><!DOCTYPE svg PUBLIC "-//W3C//DTD SVG 1.1//EN" "http://www.w3.org/Graphics/SVG/1.1/DTD/svg11.dtd"><svg t="1598849269698" class="icon" viewBox="0 0 1024 1024" version="1.1" xmlns="http://www.w3.org/2000/svg" p-id="1957" xmlns:xlink="http://www.w3.org/1999/xlink" width="200" height="200"><defs><style type="text/css">:not(select) {  }
</style></defs><path d="M491.7 280.7c32.6-37.4 80.5-61.1 134-61.1 98.1 0 177.6 79.5 177.6 177.6 0 23.7-4.7 46.3-13.1 67H491.7V280.7z" fill="#F0E203" p-id="1958"></path><path d="M337 845.9c-11 0-20-9-20-20v-15.3c0-11 9-20 20-20s20 9 20 20v15.3c0 11-9 20-20 20zM297.2 868.9c-3.4 0-6.8-0.9-10-2.7l-13.2-7.6c-9.6-5.5-12.9-17.7-7.4-27.3 5.5-9.6 17.7-12.9 27.3-7.4l13.2 7.6c9.6 5.5 12.9 17.7 7.4 27.3-3.7 6.5-10.4 10.1-17.3 10.1zM284 922.5c-6.9 0-13.7-3.6-17.4-10-5.5-9.6-2.2-21.8 7.4-27.3l13.2-7.6c9.6-5.5 21.8-2.2 27.3 7.4 5.5 9.6 2.2 21.8-7.4 27.3l-13.2 7.6c-3.1 1.7-6.5 2.6-9.9 2.6zM337 953.1c-11 0-20-9-20-20v-15.3c0-11 9-20 20-20s20 9 20 20v15.3c0 11-9 20-20 20zM390.1 922.5c-3.4 0-6.8-0.8-9.9-2.6l-13.3-7.6c-9.6-5.5-12.9-17.7-7.4-27.3 5.5-9.6 17.7-12.9 27.3-7.4l13.3 7.6c9.6 5.5 12.9 17.7 7.4 27.3-3.7 6.4-10.5 10-17.4 10zM376.8 868.9c-6.9 0-13.7-3.6-17.4-10.1-5.5-9.6-2.1-21.8 7.4-27.3l13.3-7.6c9.6-5.5 21.8-2.1 27.3 7.4 5.5 9.6 2.1 21.8-7.4 27.3l-13.3 7.6c-3.1 1.9-6.5 2.7-9.9 2.7zM337 891.9c-0.7 0-1.3 0-2-0.1-0.6-0.1-1.3-0.2-1.9-0.3s-1.3-0.3-1.9-0.5c-0.6-0.2-1.2-0.4-1.8-0.7-0.6-0.2-1.2-0.5-1.8-0.8-0.6-0.3-1.1-0.6-1.7-1-0.6-0.4-1.1-0.8-1.6-1.2-0.5-0.4-1-0.9-1.5-1.3s-0.9-1-1.3-1.5-0.8-1-1.2-1.6c-0.4-0.5-0.7-1.1-1-1.7-0.3-0.6-0.6-1.2-0.8-1.8s-0.5-1.2-0.7-1.8c-0.2-0.6-0.3-1.3-0.5-1.9-0.1-0.6-0.2-1.3-0.3-1.9-0.1-0.7-0.1-1.3-0.1-2 0-0.6 0-1.3 0.1-2 0.1-0.6 0.2-1.3 0.3-1.9 0.1-0.6 0.3-1.3 0.5-1.9 0.2-0.6 0.4-1.2 0.7-1.8 0.2-0.6 0.5-1.2 0.8-1.8 0.3-0.6 0.6-1.1 1-1.7 0.4-0.5 0.8-1.1 1.2-1.6 0.4-0.5 0.9-1 1.3-1.5s1-0.9 1.5-1.3 1-0.8 1.6-1.2c0.5-0.4 1.1-0.7 1.7-1 0.6-0.3 1.2-0.6 1.8-0.8 0.6-0.2 1.2-0.5 1.8-0.7 0.6-0.2 1.3-0.3 1.9-0.5s1.3-0.2 1.9-0.3c1.3-0.1 2.6-0.1 3.9 0 0.6 0.1 1.3 0.2 1.9 0.3 0.6 0.1 1.3 0.3 1.9 0.5 0.6 0.2 1.2 0.4 1.8 0.7s1.2 0.5 1.8 0.8c0.6 0.3 1.1 0.6 1.7 1 0.6 0.4 1.1 0.8 1.6 1.2 0.5 0.4 1 0.9 1.5 1.3s0.9 1 1.3 1.5 0.8 1 1.2 1.6c0.4 0.5 0.7 1.1 1 1.7 0.3 0.6 0.6 1.2 0.8 1.8 0.2 0.6 0.5 1.2 0.7 1.8 0.2 0.6 0.4 1.3 0.5 1.9 0.1 0.6 0.2 1.3 0.3 1.9 0.1 0.7 0.1 1.3 0.1 2s0 1.3-0.1 2c-0.1 0.6-0.2 1.3-0.3 1.9-0.1 0.6-0.3 1.3-0.5 1.9-0.2 0.6-0.4 1.2-0.7 1.8s-0.5 1.2-0.8 1.8c-0.3 0.6-0.6 1.1-1 1.7-0.4 0.5-0.8 1.1-1.2 1.6-0.4 0.5-0.9 1-1.3 1.5s-0.9 0.9-1.5 1.3c-0.5 0.4-1 0.8-1.6 1.2-0.5 0.4-1.1 0.7-1.7 1-0.6 0.3-1.2 0.6-1.8 0.8s-1.2 0.5-1.8 0.7c-0.6 0.2-1.3 0.3-1.9 0.5-0.6 0.1-1.3 0.2-1.9 0.3-0.6 0.1-1.3 0.1-1.9 0.1zM612.7 845.9c-11 0-20-9-20-20v-15.3c0-11 9-20 20-20s20 9 20 20v15.3c0 11-9 20-20 20zM572.9 868.9c-3.4 0-6.8-0.9-9.9-2.6l-13.3-7.6c-9.6-5.5-12.9-17.7-7.4-27.3s17.7-12.9 27.3-7.4l13.3 7.6c9.6 5.5 12.9 17.7 7.4 27.3-3.7 6.4-10.5 10-17.4 10zM559.6 922.5c-6.9 0-13.7-3.6-17.4-10.1-5.5-9.6-2.1-21.8 7.4-27.3l13.3-7.6c9.6-5.5 21.8-2.1 27.3 7.4s2.1 21.8-7.4 27.3l-13.3 7.6c-3.1 1.9-6.5 2.7-9.9 2.7zM612.7 953.1c-11 0-20-9-20-20v-15.3c0-11 9-20 20-20s20 9 20 20v15.3c0 11-9 20-20 20zM665.7 922.5c-3.4 0-6.8-0.9-10-2.7l-13.2-7.6c-9.6-5.5-12.9-17.7-7.4-27.3 5.5-9.6 17.7-12.9 27.3-7.4l13.2 7.6c9.6 5.5 12.9 17.7 7.4 27.3-3.7 6.5-10.4 10.1-17.3 10.1zM652.5 868.9c-6.9 0-13.6-3.6-17.4-10-5.5-9.6-2.2-21.8 7.4-27.3l13.2-7.6c9.6-5.5 21.8-2.2 27.3 7.4 5.5 9.6 2.2 21.8-7.4 27.3l-13.2 7.6c-3.1 1.7-6.5 2.6-9.9 2.6zM612.7 891.9c-0.7 0-1.3 0-2-0.1-0.6-0.1-1.3-0.2-1.9-0.3-0.6-0.1-1.3-0.3-1.9-0.5-0.6-0.2-1.2-0.4-1.8-0.7s-1.2-0.5-1.8-0.8c-0.6-0.3-1.1-0.6-1.7-1-0.5-0.4-1.1-0.8-1.6-1.2-0.5-0.4-1-0.9-1.5-1.3s-0.9-1-1.3-1.5-0.8-1-1.2-1.6c-0.4-0.5-0.7-1.1-1-1.7-0.3-0.6-0.6-1.2-0.8-1.8s-0.5-1.2-0.7-1.8c-0.2-0.6-0.3-1.3-0.5-1.9-0.1-0.6-0.2-1.3-0.3-1.9-0.1-0.7-0.1-1.3-0.1-2 0-0.6 0-1.3 0.1-2 0.1-0.6 0.2-1.3 0.3-1.9 0.1-0.6 0.3-1.3 0.5-1.9 0.2-0.6 0.4-1.2 0.7-1.8 0.2-0.6 0.5-1.2 0.8-1.8 0.3-0.6 0.6-1.1 1-1.7 0.4-0.5 0.8-1.1 1.2-1.6 0.4-0.5 0.9-1 1.3-1.5s1-0.9 1.5-1.3 1-0.8 1.6-1.2c0.5-0.4 1.1-0.7 1.7-1 0.6-0.3 1.2-0.6 1.8-0.8s1.2-0.5 1.8-0.7c0.6-0.2 1.3-0.3 1.9-0.5 0.6-0.1 1.3-0.2 1.9-0.3 1.3-0.1 2.6-0.1 3.9 0 0.6 0.1 1.3 0.2 1.9 0.3 0.6 0.1 1.3 0.3 1.9 0.5 0.6 0.2 1.2 0.4 1.8 0.7 0.6 0.2 1.2 0.5 1.8 0.8 0.6 0.3 1.1 0.6 1.7 1 0.5 0.4 1.1 0.8 1.6 1.2 0.5 0.4 1 0.9 1.5 1.3s0.9 1 1.3 1.5 0.8 1 1.2 1.6c0.4 0.5 0.7 1.1 1 1.7 0.3 0.6 0.6 1.2 0.8 1.8 0.2 0.6 0.5 1.2 0.7 1.8 0.2 0.6 0.3 1.3 0.5 1.9 0.1 0.6 0.2 1.3 0.3 1.9 0.1 0.7 0.1 1.3 0.1 2s0 1.3-0.1 2c-0.1 0.6-0.2 1.3-0.3 1.9-0.1 0.6-0.3 1.3-0.5 1.9-0.2 0.6-0.4 1.2-0.7 1.8s-0.5 1.2-0.8 1.8c-0.3 0.6-0.6 1.1-1 1.7-0.4 0.5-0.8 1.1-1.2 1.6-0.4 0.5-0.9 1-1.3 1.5s-1 0.9-1.5 1.3-1 0.8-1.6 1.2c-0.5 0.4-1.1 0.7-1.7 1-0.6 0.3-1.2 0.6-1.8 0.8-0.6 0.2-1.2 0.5-1.8 0.7-0.6 0.2-1.3 0.3-1.9 0.5-0.6 0.1-1.3 0.2-1.9 0.3-0.6 0.1-1.3 0.1-1.9 0.1z" fill="#97EBFF" p-id="1959"></path><path d="M842.4 588.6c0 88.8-72 160.8-160.8 160.8-2.6 0-5.1-0.3-7.7-0.4v0.4H229.8v-0.4c-2.6 0.2-5.1 0.4-7.7 0.4-71.9 0-130.1-58.2-130.1-130.1 0-41.9 19.7-79.1 50.5-102.9 22.1-17.1 49.7-27.2 79.7-27.2 3.1 0 6.2 0.3 9.2 0.4-0.7-5.8-1.3-11.8-1.4-17.8-0.1-1.9-0.1-3.8-0.1-5.7 0-105.7 85.7-191.4 191.4-191.4 14.5 0 28.6 1.6 42.1 4.6 78.5 17.6 138.6 83.5 148 164.8 5.5-2.7 11.3-5.1 17.2-7.1 16.6-5.9 34.5-9.1 53.2-9.1 88.6-0.1 160.6 71.9 160.6 160.7z" fill="#97EBFF" p-id="1960"></path><path d="M842.4 584.2c0 88.8-72 160.8-160.8 160.8-2.6 0-5.1-0.3-7.7-0.4v0.4H229.8v-0.4c-2.6 0.2-5.1 0.4-7.7 0.4C150.2 745 92 686.7 92 614.8c0-35.5 14.2-67.7 37.3-91.1-13.7 19.6-21.7 43.4-21.7 69.2 0 66.8 54.1 121 121 121 2.4 0 4.7-0.2 7.1-0.4v0.4h412.8v-0.4c2.4 0.1 4.7 0.4 7.1 0.4 82.5 0 149.5-66.9 149.5-149.5 0-62-37.7-115.1-91.4-137.7 73.4 14.7 128.7 79.7 128.7 157.5z" fill="#07DBFF" p-id="1961"></path><path d="M631.6 474c0 122.1-99 221.1-221.1 221.1-10 0-19.8-0.6-29.4-2 109.1-14.5 193.3-107.9 193.3-220.9 0-82.4-44.7-154.3-111-192.9 78.5 17.6 138.6 83.5 148 164.8 5.5-2.7 11.3-5.1 17.2-7.1 1.9 12 3 24.3 3 37z" fill="#07DBFF" p-id="1962"></path><path d="M420 605.9c-40.7-59.9-109.4-99.2-187.3-99.2-32.1 0-62.6 6.7-90.2 18.7 22.1-17.1 49.7-27.2 79.7-27.2 3.1 0 6.2 0.3 9.2 0.4-0.7-5.8-1.3-11.8-1.4-17.8 1.8-0.1 3.7-0.1 5.4-0.1 83.8 0 155.4 51.8 184.6 125.2z" fill="#07DBFF" p-id="1963"></path><path d="M823.3 397.2c0-52.8-20.6-102.4-57.9-139.7-37.3-37.3-86.9-57.9-139.7-57.9-55.1 0-107.6 23.1-145 63.5-18.9-5.5-38.8-8.5-59.4-8.5-116.6 0-211.4 94.8-211.4 211.4v3.5c-35.5 2.9-68.5 18-93.9 43.5-28.3 28.3-44 66.1-44 106.2s15.6 77.9 44 106.2 66.1 44 106.2 44c1.8 0 3.4-0.1 4.9-0.2 0.9 0.1 1.8 0.2 2.8 0.2H674c0.9 0 1.9-0.1 2.8-0.2 1.5 0.1 3.1 0.2 4.9 0.2 99.7 0 180.8-81.1 180.8-180.8 0-48.6-19.3-92.8-50.7-125.3 7.7-21.3 11.5-43.5 11.5-66.1zM625.7 239.6c86.9 0 157.6 70.7 157.6 157.6 0 13.1-1.6 26.1-4.8 38.7-28-17.8-61.3-28.1-96.9-28.1-18.7 0-37.1 2.9-54.9 8.6-9-37.5-27.8-70.9-53.5-97.4 15.4-10.4 33.6-16 52.5-16 12.7 0 25 2.5 36.6 7.4 10.2 4.3 21.9-0.4 26.2-10.6 4.3-10.2-0.4-21.9-10.6-26.2-16.5-7-34.1-10.6-52.2-10.6-30.8 0-60.1 10.4-83.8 29.4-6.7-4.7-13.7-8.9-20.9-12.8 28.7-25.6 65.9-40 104.7-40z m56.1 489.8c-0.8 0-1.9-0.1-3.2-0.2-1.2-0.1-2.5-0.2-3.8-0.2h-0.8c-1.3 0-2.7 0.1-4 0.4H234c-1.5-0.3-3.1-0.4-4.7-0.4-1.3 0-2.5 0.1-3.8 0.2-1.3 0.1-2.3 0.2-3.2 0.2-29.5 0-57.2-11.5-78-32.2-20.8-20.8-32.2-48.5-32.2-78s11.5-57.2 32.2-78c20.8-20.8 48.5-32.2 78-32.2 2.5 0 5.4 0.2 7.9 0.4 6 0.4 11.8-1.9 15.9-6.3s6-10.3 5.3-16.3c-1-7.4-1.4-14.2-1.4-20.8 0-94.5 76.9-171.4 171.4-171.4 87.1 0 160.2 65.2 170.1 151.8 0.7 6.4 4.5 12.1 10.2 15.2 5.7 3.1 12.5 3.3 18.4 0.5 19.6-9.5 40.4-14.3 61.6-14.3 77.7 0 141 63.2 141 140.8-0.1 77.6-63.3 140.8-140.9 140.8zM544.1 169.6c2.4 8.9 10.5 14.8 19.3 14.8 1.7 0 3.5-0.2 5.2-0.7 10.7-2.9 17-13.8 14.1-24.5L563 85.7c-2.9-10.7-13.8-17-24.5-14.1-10.7 2.9-17 13.8-14.1 24.5l19.7 73.5z" fill="#3F1E01" p-id="1964"></path><path d="M441.1 240.9c3.9 3.9 9 5.9 14.2 5.9 5.1 0 10.2-1.9 14.1-5.8 7.8-7.8 7.8-20.5 0-28.3l-53.8-53.9c-7.8-7.8-20.5-7.8-28.3 0-7.8 7.8-7.8 20.5 0 28.3l53.8 53.8zM937.2 459.9l-73.5-19.7c-10.7-2.9-21.6 3.5-24.5 14.1-2.9 10.7 3.5 21.6 14.1 24.5l73.5 19.7c1.7 0.5 3.5 0.7 5.2 0.7 8.8 0 16.9-5.9 19.3-14.8 2.9-10.7-3.5-21.7-14.1-24.5zM839.2 340c2.4 8.9 10.5 14.8 19.3 14.8 1.7 0 3.5-0.2 5.2-0.7l73.5-19.7c10.7-2.9 17-13.8 14.1-24.5-2.9-10.7-13.8-17-24.5-14.1l-73.5 19.7c-10.6 2.8-17 13.8-14.1 24.5zM796.1 246.8c5.1 0 10.2-2 14.2-5.9l53.8-53.9c7.8-7.8 7.8-20.5 0-28.3-7.8-7.8-20.5-7.8-28.3 0L782 212.6c-7.8 7.8-7.8 20.5 0 28.3 3.9 4 9 5.9 14.1 5.9zM682.9 183.7c1.7 0.5 3.5 0.7 5.2 0.7 8.8 0 16.9-5.9 19.3-14.8l19.7-73.5c2.9-10.7-3.5-21.6-14.1-24.5-10.7-2.9-21.6 3.5-24.5 14.1l-19.7 73.5c-2.9 10.7 3.5 21.7 14.1 24.5z" fill="#3F1E01" p-id="1965"></path></svg>